<svg id="Layer_1" data-name="Layer 1" xmlns="http://www.w3.org/2000/svg" viewBox="0 0 14399.82 2671.12"><defs><style>.cls-1{fill:#696969;}</style></defs><title>Depositphotos-Logo-Dark</title><path class="cls-1" d="M1526.25,1114.26c-183.91,0-332.91,149.48-332.91,333.42s149,333.42,332.91,333.42c183.34,0,332.35-149.53,332.35-333.42S1709.59,1114.26,1526.25,1114.26Zm194.93,509.42a265.87,265.87,0,0,1-205.24,96.7c-147.26,0-266.12-119.23-266.12-267a267.32,267.32,0,0,1,96.42-205.89L1351,1244l-11.88,16a267.57,267.57,0,0,0-44.92,148.9c0,147.69,118.86,267,266.12,267a265.64,265.64,0,0,0,148.42-45.08l16-11.92Z" transform="translate(-0.04 -0.09)"/><path class="cls-1" d="M4808.65,1010.22c-99.21-77-214.25-120.41-334.51-120.41-96.2,0-192.64,29.21-275.28,77.71-85,50-140.43,120.12-190.76,210.19-.74,1.33-1.35,2.71-2.1,4V371.53H3710V982.41c-64.35-66.8-171.29-91-276.75-91q-146.53,0-269.78,71.93c-84.52,49.53-152.74,123-204.65,215.74-48.85,88-65.16,146.63-65.16,240.58,0,137.92,46.91,289,143,397.44q162.83,184,405.82,184c130.25,0,252.43-42,353.24-126.15,75.27-63.87,135.82-146.54,172.45-232.11a544.64,544.64,0,0,0,36.48,78.91q73.25,129.34,204.08,205.54c84.17,48.53,174,75.07,269.5,75.07,87.93,0,169.46-21.94,244.64-61.23,31.59-16.9,59.14-38.86,101.24-65.81l-1.24-289.89c-91,65.44-150,107.07-204.84,124.71q-72.13,23.15-152.21,23.12-37.2,0-90.2-24.25l560.39-571.68Q4862.72,1051.79,4808.65,1010.22ZM3654.18,1643.66q-89.49,99-217.44,99-131.37,0-219.75-112-65.13-82.48-65.12-180.39,0-107.23,66.27-185.11,83.76-101.37,215.15-101.37,117.39,0,197.66,74.24,96.49,90.83,96.48,214.62Q3727.44,1562.28,3654.18,1643.66Zm569.28-92.86q-29.3-61.23-29.29-102.86,0-102.72,73.26-189.34,80.06-95.91,204.08-95.92,44,0,104.89,22Z" transform="translate(-0.04 -0.09)"/><path class="cls-1" d="M1524.68,889.68c-307.85,0-558.12,249.83-558.12,557.86s250.27,558.56,558.12,558.56,555.85-250.44,555.85-558.56S1832.53,889.68,1524.68,889.68Zm0,1006.75c-248.57,0-450.9-202.44-450.9-451.18s202.33-450.62,450.9-450.62S1975,1196.53,1975,1445.25,1773.18,1896.44,1524.68,1896.44Z" transform="translate(-0.04 -0.09)"/><path class="cls-1" d="M2296.64,914.35h-93.39c-31.83,0-57.74,25.82-57.74,58.46v62.47c0,32.61,25.91,59.16,57.74,59.16h93.39c31.78,0,57.74-26.54,57.74-59.16V972.81C2354.38,940.17,2328.42,914.35,2296.64,914.35Z" transform="translate(-0.04 -0.09)"/><path class="cls-1" d="M2487.38,657.47C2256.52,264.52,1812,.09,1327.11.09,595.79.09,0,598.55,0,1336S595.79,2671.21,1327.11,2671.21c352.34,0,693-137.63,930.5-364.35,220.19-6.75,406.17-107.46,415.1-385.35V946.29C2672.71,817.78,2596.41,707.48,2487.38,657.47Zm39.82,1264.92c0,151.86-110.37,229.6-260.94,229.6h-1486c-171.75,0-261.82-35-261.82-215.19v-936c0-179.41,94.65-259.2,266.4-259.2h324s100-169.61,101-170c10.11-15.69,36.13-53.18,100.59-53.18h367.19c66.38,0,90.61,29.91,103.53,53.18,2.34,4.19,105.28,170,105.28,170H2268c171.07,0,259.2,79.78,259.2,259.2Z" transform="translate(-0.04 -0.09)"/><path class="cls-1" d="M8605.86,598.44,8309.1,704.51v185h-76.93V1187.1h76.93V1666q0,109.66,40.71,182.75c58.89,105.37,172.93,155.62,320.23,155.62,45.71,0,91.79-5.87,157.71-22.37V1709.54c-75.4,32.79-109.91,33.09-132.37,33.09-27.92,0-50.8-3.49-68.63-20q-22.1-20-24.4-44.75l1.13-70.79v-420h225.6V889.47H8605.86Z" transform="translate(-0.04 -0.09)"/><path class="cls-1" d="M11831.13,965.36c-78.28-48.61-170-75.22-256.95-75.22-88.41,0-166,23.14-242.08,64.81-73.21,40.14-133.29,96.81-184.69,170.16-65.23,94.89-95.61,199.84-95.61,324,0,97.25,22.13,191.79,66.34,274.32q68.47,128.49,193.45,203.73c81.16,50.12,167.39,77.54,258.7,77.54s177.16-27,257.58-76.4q121.68-75.18,193.45-206c47.85-87.18,71.75-177.86,71.75-276.64,0-96.44-22.46-188.65-67.41-272Q11955,1042.87,11831.13,965.36Zm-58.72,669c-55.79,65.57-118,98.38-200.63,98.38-67.36,0-133-23.9-183-71.75q-89.09-85.69-89.11-213,0-122.62,76.08-204.84c50.71-56.36,117.13-82.21,194.69-82.21,71.75,0,129.9,22,179.17,70.62q91.32,89.13,91.31,213Q11840.89,1554.51,11772.41,1634.36Z" transform="translate(-0.04 -0.09)"/><path class="cls-1" d="M6853.74,969.71Q6731.67,897.08,6596,897.06q-137.88,0-256.53,62.23-114.18,59.92-194.39,169.46a529.9,529.9,0,0,0-84.57,182.73q-31.3-130.06-124.86-236.12-161.62-185.1-405.82-185.11-148.82,0-276.72,76.62c-83,50.32-163.06,119.1-213.44,206.35-48.07,83.32-69.48,182.36-68.67,297.09l1.2,903h296V1919.53q46.53,30.65,72.1,42.44Q5424,2004.4,5538,2004.44c141.06,0,252.39-47.59,357-142.7q126.29-115.68,164.55-270.85a535,535,0,0,0,52.83,133.75q71.18,128,201.15,202.88,126.55,74.88,269,74.9t267.82-73.76q126.52-74.88,201.18-205.19t74.59-277.77q0-144-70.09-268.52Q6982.56,1046.85,6853.74,969.71Zm-1125,690.45c-55.05,54.22-124.4,81.31-203.47,81.31-66.69,0-124.05-21.17-176.77-63.61q-109.33-88.51-109.28-227.59,0-110.77,73.26-194.52,84.84-95.55,205.83-95.5,117.42,0,200,76.6,96.53,89.68,96.55,214.6Q5814.77,1574.14,5728.7,1660.16Zm1061.67-24.27c-58,65.33-127.61,98-213.53,98-70,0-133.42-23.84-185.41-71.47q-92.63-85.33-92.64-212.09,0-122.17,79.11-204,79.11-84.18,200-84.17,111.92,0,188.73,72.6,95,88.8,94.93,212.09Q6861.58,1556.36,6790.37,1635.88Z" transform="translate(-0.04 -0.09)"/><path class="cls-1" d="M13657.56,1173.11q-70.5-130.55-194.1-207.92c-78.1-48.48-169.59-75-256.38-75-88.19,0-165.64,23.07-241.54,64.66-73,40.06-133,96.66-184.28,169.79-65.07,94.72-95.37,199.45-95.37,323.37,0,97.07,22,191.4,66.16,273.8q68.33,128.16,193,203.25c81,50,167,77.41,258.1,77.41s176.77-27,257-76.23q121.41-75,193-205.59c47.74-87,71.58-177.49,71.58-276C13724.8,1348.31,13702.38,1256.26,13657.56,1173.11Zm-252.67,462c-55.69,65.44-117.77,98.21-200.22,98.21-67.21,0-132.72-23.86-182.62-71.6q-88.9-85.49-88.91-212.55,0-122.43,75.92-204.41c50.6-56.23,116.87-84.35,194.26-84.35,71.58,0,129.62,24.25,178.78,72.8q91.12,88.9,91.09,212.48Q13473.2,1555.45,13404.89,1635.1Z" transform="translate(-0.04 -0.09)"/><path class="cls-1" d="M14148.37,1333.27q-115.94-47.12-135.47-73.45c-9.25-13.82-13.8-27.55-13.8-41.3q0-24.16,17.25-43.66c12.2-13.8,28.7-20.65,49.33-20.65q42.47,0,83.87,28.68c22.2,16.07,45.14,42.81,73.45,89.5l176.86-167.62c-32.15-52.78-58.13-86.79-82.62-111.28q-97.61-97.58-243.48-97.58-204.42,0-305.5,177.93-41.29,73.44-41.32,158.43,0,102.13,49.33,175.59c41.39,62,120.8,107.53,201.13,136.63q103.44,36.71,120.63,62t17.18,50.53c0,19.14-6.81,36.39-20.63,51.69q-24.13,26.36-59.68,26.41c-45.21,0-111.94-33.22-177-122.74l-164.24,196.26c37.52,54.38,64.26,81.84,94.15,105.52,71.21,56.65,168.21,85,253.91,85q135.52,0,233.2-91.83,118.2-112.51,118.29-265.18,0-88.37-48.24-167.62C14306.67,1412.47,14228.76,1365.42,14148.37,1333.27Z" transform="translate(-0.04 -0.09)"/><path class="cls-1" d="M12484.32,1720.32q-22.14-20-24.43-44.79l1.16-70.79V1187.1h223.59V889.66h-223V592.46l-294.1,115V889.66h-76.82V1187.1h76.82v476.64q0,109.59,40.69,182.71c58.92,105.37,180,158,327.33,158,45.73,0,84.17-10.57,150.09-27.09V1705.26c-77.49,38.29-110.24,39.84-132.7,39.84Q12511.08,1745.1,12484.32,1720.32Z" transform="translate(-0.04 -0.09)"/><rect class="cls-1" x="7864.01" y="890.77" width="296.96" height="1111.12"/><path class="cls-1" d="M7511.79,1154.21q42.5,0,83.85,28.68,33.3,24.1,75.81,94.1l176.84-167.56q-48.23-79.21-85-116-97.61-97.58-243.46-97.58-204.45,0-305.5,177.93Q7173,1147.28,7173,1232.27q0,102.13,49.38,175.59,62,93.06,182.6,136.63,103.34,36.71,120.58,62t17.22,50.53q0,28.72-20.65,51.69-24.13,26.36-59.75,26.41-67.75,0-165.38-134.34L7132.82,1797q56.25,81.53,101.07,117.09,106.81,85,235.43,85,135.49,0,233.11-91.83,118.3-112.51,118.29-265.18,0-88.37-48.2-167.62-57.47-93-178-141.17-116-47.12-135.54-73.45c-9.19-13.82-13.77-27.55-13.77-41.3q0-24.16,17.22-43.66Q7480.79,1154.16,7511.79,1154.21Z" transform="translate(-0.04 -0.09)"/><path class="cls-1" d="M8109.41,479.54q-40.67-34.38-94-34.36-55.21,0-96.86,34.36-51.31,42.27-51.32,111,0,58.91,39.71,103.12,43.58,50.06,110.41,50.12,55.21,0,95.87-36.39,48.43-44.17,48.44-112.92Q8161.71,523.75,8109.41,479.54Z" transform="translate(-0.04 -0.09)"/><path class="cls-1" d="M10719.89,946.79q-80.22-61.3-176.75-61.32-64,0-123.27,28.31c-28.71,13.4-67.43,26-107.75,66.05V369h-297.24v984.38c-17.18-103.45-62.93-196.18-135.32-278.06-107.75-123.4-243-186.68-405.8-186.68-99.21,0-199.17,15.26-284.41,66.34-83,50.32-166.27,117.81-216.65,205-48.07,83.32-72,195.52-71.21,310.25l1.07,903.24H9199v-454q46.46,30.65,72.06,42.44c55.84,28.29,123.2,42.48,199.19,42.48q211.62,0,368.6-142.7c96.53-88.45,155.9-194.23,176-317.22v457.19h297.24V1366.54q0-106.09,48.85-158c39.53-43.2,86.79-50.73,133.33-50.73q26.72,0,54.64,17.68,30.25,18.86,55.82,94.37l235.88,729.5h289.5l-268.41-806.19Q10798.93,1007,10719.89,946.79ZM9665.64,1660.16q-82.58,81.33-201.16,81.31-100.06,0-179.11-63.61-109.3-88.51-109.28-227.59,0-110.77,73.26-194.52,84.87-95.55,205.83-95.5,117.45,0,200,76.6,96.53,89.68,96.53,214.6Q9751.68,1574.14,9665.64,1660.16Z" transform="translate(-0.04 -0.09)"/></svg>